<?xml version="1.0" standalone="no"?><!DOCTYPE svg PUBLIC "-//W3C//DTD SVG 1.1//EN" "http://www.w3.org/Graphics/SVG/1.1/DTD/svg11.dtd"><svg t="1660275537637" class="icon" viewBox="0 0 1024 1024" version="1.1" xmlns="http://www.w3.org/2000/svg" p-id="1978" xmlns:xlink="http://www.w3.org/1999/xlink" width="200" height="200"><defs><style type="text/css">@font-face { font-family: feedback-iconfont; src: url("//at.alicdn.com/t/font_1031158_u69w8yhxdu.woff2?t=1630033759944") format("woff2"), url("//at.alicdn.com/t/font_1031158_u69w8yhxdu.woff?t=1630033759944") format("woff"), url("//at.alicdn.com/t/font_1031158_u69w8yhxdu.ttf?t=1630033759944") format("truetype"); }
</style></defs><path d="M512 512m-512 0a512 512 0 1 0 1024 0 512 512 0 1 0-1024 0Z" fill="#FBD971" p-id="1979"></path><path d="M292.571429 341.333333m-146.285715 0a146.285714 146.285714 0 1 0 292.571429 0 146.285714 146.285714 0 1 0-292.571429 0Z" fill="#FFFFFF" p-id="1980"></path><path d="M731.428571 341.333333m-146.285714 0a146.285714 146.285714 0 1 0 292.571429 0 146.285714 146.285714 0 1 0-292.571429 0Z" fill="#FFFFFF" p-id="1981"></path><path d="M692.784762 778.24l-47.201524-30.086095 47.201524-30.086095a73.337905 73.337905 0 0 0 22.332952-100.985905 73.362286 73.362286 0 0 0-101.010285-22.332953l-104.569905 66.681905-104.569905-66.681905a73.337905 73.337905 0 0 0-100.985905 22.332953 73.337905 73.337905 0 0 0 22.332953 100.985905l47.201523 30.086095-47.201523 30.086095a73.337905 73.337905 0 0 0-22.332953 100.985905 73.337905 73.337905 0 0 0 100.985905 22.332952l104.569905-66.681905 104.569905 66.681905a73.386667 73.386667 0 0 0 101.010285-22.332952 73.362286 73.362286 0 0 0-22.332952-100.985905z" fill="#F9A671" p-id="1982"></path><path d="M292.571429 341.333333m-73.142858 0a73.142857 73.142857 0 1 0 146.285715 0 73.142857 73.142857 0 1 0-146.285715 0Z" fill="#AF8066" p-id="1983"></path><path d="M731.428571 341.333333m-73.142857 0a73.142857 73.142857 0 1 0 146.285715 0 73.142857 73.142857 0 1 0-146.285715 0Z" fill="#AF8066" p-id="1984"></path></svg>